HIERARCHY
ROOT root
{
	OFFSET 0.000000 0.000000 0.000000
	CHANNELS 6 Xposition Yposition Zposition Zrotation Yrotation Xrotation
	JOINT lhip
	{
		OFFSET 0.058581 -0.082280 -0.017664
		CHANNELS 3 Zrotation Yrotation Xrotation
		JOINT lknee
		{
			OFFSET 0.043451 -0.386469 0.008037
			CHANNELS 3 Zrotation Yrotation Xrotation
			JOINT lankle
			{
				OFFSET -0.014790 -0.426874 -0.037428
				CHANNELS 3 Zrotation Yrotation Xrotation
				JOINT ltoe
				{
					OFFSET 0.041054 -0.060286 0.122042
					CHANNELS 3 Zrotation Yrotation Xrotation
					End Site
					{
						OFFSET 0.000000 0.000000 0.000000
					}
				}
			}
		}
	}
	JOINT rhip
	{
		OFFSET -0.060310 -0.090513 -0.013543
		CHANNELS 3 Zrotation Yrotation Xrotation
		JOINT rknee
		{
			OFFSET -0.043257 -0.383688 -0.004843
			CHANNELS 3 Zrotation Yrotation Xrotation
			JOINT rankle
			{
				OFFSET 0.019056 -0.420046 -0.034562
				CHANNELS 3 Zrotation Yrotation Xrotation
				JOINT rtoe
				{
					OFFSET -0.034840 -0.062106 0.130323
					CHANNELS 3 Zrotation Yrotation Xrotation
					End Site
					{
						OFFSET 0.000000 0.000000 0.000000
					}
				}
			}
		}
	}
	JOINT lowerback
	{
		OFFSET 0.004439 0.124404 -0.038385
		CHANNELS 3 Zrotation Yrotation Xrotation
		JOINT upperback
		{
			OFFSET 0.004488 0.137956 0.026820
			CHANNELS 3 Zrotation Yrotation Xrotation
			JOINT chest
			{
				OFFSET -0.002265 0.056032 0.002855
				CHANNELS 3 Zrotation Yrotation Xrotation
				JOINT lowerneck
				{
					OFFSET -0.013390 0.211636 -0.033468
					CHANNELS 3 Zrotation Yrotation Xrotation
					JOINT upperneck
					{
						OFFSET 0.010113 0.088937 0.050410
						CHANNELS 3 Zrotation Yrotation Xrotation
						End Site
						{
							OFFSET 0.000000 0.000000 0.000000
						}
					}
				}
				JOINT lclavicle
				{
					OFFSET 0.071702 0.114000 -0.018898
					CHANNELS 3 Zrotation Yrotation Xrotation
					JOINT lshoulder
					{
						OFFSET 0.122921 0.045205 -0.019046
						CHANNELS 3 Zrotation Yrotation Xrotation
						JOINT lelbow
						{
							OFFSET 0.255332 -0.015649 -0.022946
							CHANNELS 3 Zrotation Yrotation Xrotation
							JOINT lwrist
							{
								OFFSET 0.265709 0.012698 -0.007375
								CHANNELS 3 Zrotation Yrotation Xrotation
								End Site
								{
									OFFSET 0.000000 0.000000 0.000000
								}
							}
						}
					}
				}
				JOINT rclavicle
				{
					OFFSET -0.082954 0.112472 -0.023707
					CHANNELS 3 Zrotation Yrotation Xrotation
					JOINT rshoulder
					{
						OFFSET -0.113228 0.046853 -0.008472
						CHANNELS 3 Zrotation Yrotation Xrotation
						JOINT relbow
						{
							OFFSET -0.260127 -0.014369 -0.031269
							CHANNELS 3 Zrotation Yrotation Xrotation
							JOINT rwrist
							{
								OFFSET -0.269108 0.006794 -0.006027
								CHANNELS 3 Zrotation Yrotation Xrotation
								End Site
								{
									OFFSET 0.000000 0.000000 0.000000
								}
							}
						}
					}
				}
			}
		}
	}
}
MOTION
Frames: 17
Frame Time: 0.033333
0.524223 0.233177 1.015352 91.805997 -6.128928 90.995068 -6.876941 -11.975353 -25.039560 -3.224430 4.194745 13.131680 -3.247979 5.906697 7.920208 0.000000 -0.000000 0.000000 1.826213 -0.612726 16.713592 -6.658323 7.905442 52.004395 6.257855 -8.319249 16.021007 0.000000 -0.000000 0.000000 -3.008530 7.509936 12.386778 1.181743 0.705743 -6.651627 0.127894 2.023958 3.708391 1.036093 -3.672950 -17.873491 -0.801566 -0.051424 0.843506 -20.526056 22.457737 1.785426 -62.218728 13.776270 11.434237 -149.027141 -69.217705 168.112857 0.127407 -17.131941 -37.192549 20.406167 -7.640313 -8.549404 54.649278 2.773228 24.163023 -169.909718 64.638583 -153.605180 7.588344 17.163864 -21.454584 
0.642040 0.231219 0.992013 93.912824 -6.276184 90.423624 -6.897226 -13.187963 -23.413405 -6.715459 2.300483 17.763337 3.862686 5.389845 4.403614 0.000000 -0.000000 0.000000 0.852759 -1.329727 10.576576 -4.684029 6.605443 68.638402 6.499546 -8.201039 14.817939 0.000000 -0.000000 0.000000 -3.503979 6.699349 14.156649 0.946954 0.704968 -8.397636 -0.267540 1.054325 3.992499 1.668296 -4.622979 -17.395400 0.656984 1.157063 1.027720 -22.141865 20.143541 1.097022 -60.522708 10.170530 12.835114 -154.476345 -68.266280 173.501613 0.960332 -15.664065 -36.359080 21.005230 -7.812513 -8.496147 55.275486 -1.217870 23.944819 -165.491977 73.478778 -150.385552 7.863928 15.833112 -19.593352 
0.753959 0.230026 0.963448 95.058152 -5.542293 89.419995 -7.465956 -11.529717 -22.063539 -10.087045 -0.258946 31.298557 12.561669 8.821132 -10.942670 0.000000 -0.000000 0.000000 -0.435742 -0.932279 2.239662 -1.593918 3.551328 84.708064 1.809361 -12.201622 9.996954 0.000000 -0.000000 0.000000 -3.825940 4.003114 15.914700 1.082879 1.739487 -9.304162 -0.691345 0.748872 6.243354 3.739292 -4.432252 -21.544410 0.325684 1.123034 5.509977 -25.765118 17.355960 -2.203260 -58.093200 3.549694 15.343178 -160.587285 -67.977433 177.608896 3.405712 -14.696615 -38.088422 23.833945 -7.243147 -8.880243 53.335577 -2.988320 24.946795 -141.607624 81.650161 -128.569306 9.403767 15.417803 -17.237542 
0.865661 0.229020 0.947697 96.124984 -5.145070 89.430408 -9.174486 -8.850261 -14.866749 -9.702145 -2.508681 33.408886 16.065341 12.317828 -20.510138 0.000000 -0.000000 0.000000 -2.607198 -0.423064 -9.994658 0.111424 0.019383 95.830449 1.200651 -14.068772 8.662410 0.000000 -0.000000 0.000000 -4.685900 1.323466 17.416090 1.165730 3.027327 -9.555534 -0.782601 0.246998 6.283045 4.499921 -4.178831 -24.172106 0.356897 0.407916 7.886574 -29.067331 13.163118 -4.617869 -56.218317 -3.913108 18.518047 -170.697784 -68.512460 -176.458523 5.840925 -12.996093 -37.396155 27.335121 -7.756349 -8.730203 51.311158 -7.627781 26.450289 -114.499373 81.542317 -103.345351 9.069059 14.322027 -9.761301 
0.951237 0.229068 0.949874 98.095885 -3.836081 88.277081 -9.248586 -4.226403 -6.488734 -8.790043 -8.393006 31.773712 15.072686 12.535455 -23.092323 0.000000 -0.000000 0.000000 -2.849159 -2.403754 -17.371840 -0.045074 -1.371064 98.253997 2.001193 -14.692184 5.271091 0.000000 -0.000000 0.000000 -3.273459 -1.294655 19.864958 0.973105 3.124186 -10.500964 -0.506803 -0.597791 6.475179 3.377034 -4.783861 -23.788202 1.122172 1.648715 6.644174 -29.884649 10.433099 -5.607962 -56.781173 -9.409514 18.858384 -175.620194 -67.910088 -171.872111 6.968413 -11.268918 -36.276095 27.188556 -8.459116 -8.566784 50.754547 -12.226306 25.422741 -137.519706 81.023490 -126.744896 10.947631 14.271938 -11.001527 
1.098960 0.230341 0.973383 101.787821 -1.195347 87.254069 -4.294140 2.560143 7.266045 -6.918399 -16.913725 25.784049 5.760251 7.654555 -16.259479 0.000000 -0.000000 0.000000 -2.933326 -3.881045 -26.103513 -2.946301 -5.838426 90.980209 4.191135 -11.104505 6.055685 0.000000 -0.000000 0.000000 -1.185586 -7.058878 21.245593 1.544140 1.634705 -10.220788 0.728595 -2.902809 5.091430 1.703980 -3.070159 -21.491628 1.614888 4.906040 5.597467 -28.452906 8.756585 -5.525574 -60.975970 -13.697682 17.634146 175.756937 -64.659910 -161.171092 6.471657 -12.387252 -36.407313 24.005117 -10.498983 -7.011895 50.377972 -16.282599 23.250904 174.792447 77.912825 -173.437100 11.893843 15.983650 -16.546546 
1.219795 0.230933 1.002706 102.031835 0.434973 88.379022 0.758107 4.757095 15.047671 -5.171520 -17.434737 19.856823 -4.038313 3.670164 0.059693 0.000000 -0.000000 0.000000 -2.932672 -1.767985 -31.141369 -5.007932 -10.740467 77.742181 5.205716 -8.412582 4.701771 0.000000 -0.000000 0.000000 0.062581 -10.624000 19.161615 2.420545 1.013426 -8.769654 1.458134 -3.862035 2.997057 0.754533 -0.417594 -18.756732 1.455750 5.906273 4.721112 -27.090129 9.102095 -4.312898 -62.618601 -15.290861 17.869599 171.653779 -62.334676 -158.699717 5.649437 -15.170667 -37.410853 22.043712 -12.029884 -4.453578 49.923647 -17.234122 22.240373 163.430126 74.668712 176.216804 11.805156 16.759922 -18.873703 
1.344619 0.231022 1.028077 99.668962 1.540365 90.097190 4.558940 7.473926 21.094429 -2.677976 -13.616327 12.606108 -14.303913 4.424228 19.877741 0.000000 -0.000000 0.000000 -2.430938 1.846473 -33.979792 -5.911529 -15.152034 59.993652 5.857190 -6.374176 5.949097 0.000000 -0.000000 0.000000 1.442589 -13.072755 14.928968 2.552275 1.658453 -6.009534 1.843706 -3.601085 0.620735 -0.053270 0.613098 -14.613944 2.035824 6.765165 1.802206 -25.249578 9.511223 -2.933747 -62.740267 -13.693285 18.460498 171.756140 -59.966781 -158.181812 3.302381 -15.563944 -37.816364 19.922716 -13.022918 -2.197209 51.560282 -18.700900 20.653678 159.483634 73.481207 173.186777 11.667113 16.761202 -22.127146 
1.465337 0.232430 1.041934 98.215539 0.946319 91.571220 2.987496 7.057865 23.048930 -1.381612 -14.486623 14.396478 -10.053804 5.330023 24.423387 0.000000 -0.000000 0.000000 -2.536375 3.016576 -34.350497 -3.702418 -16.202176 39.424194 8.217814 -7.337153 9.341765 0.000000 -0.000000 0.000000 1.651170 -13.896559 12.769357 2.351665 1.648900 -5.921334 1.777641 -3.449803 0.183200 -0.366574 -0.013826 -14.271199 2.795458 8.270711 1.635839 -23.910418 10.657665 -2.158399 -61.082067 -13.820444 19.300507 176.330794 -59.196883 -161.791443 2.431838 -14.561139 -37.743724 18.073831 -14.075437 -1.918879 54.831471 -20.310373 21.908566 168.480160 73.693975 -177.287436 11.006986 16.336247 -22.657409 
1.586552 0.231848 1.044794 97.284079 0.340051 90.148088 0.535243 5.879022 24.179421 -0.607637 -15.661715 25.129170 -9.266969 6.507349 21.660260 0.000000 -0.000000 0.000000 -0.783512 1.697045 -29.310505 -2.380037 -17.449189 19.729225 11.855355 -6.797063 10.897746 0.000000 -0.000000 0.000000 1.263018 -12.458749 15.100876 1.935961 0.199413 -6.797061 1.870852 -4.274305 0.439518 0.222432 1.427152 -16.724965 2.468233 7.215356 2.971985 -22.907148 10.105036 -1.437230 -59.456817 -12.640658 18.873363 -179.480179 -60.263022 -163.664838 3.387873 -16.294278 -35.446304 18.798820 -13.627819 -2.308300 56.809578 -20.323390 21.252011 175.953725 73.386280 -168.323842 10.124464 16.305903 -22.776282 
1.708283 0.230439 1.034943 96.139048 0.166860 88.994518 -1.013974 4.833465 22.338215 -1.979859 -15.469987 40.377711 -10.176820 5.392336 20.965017 0.000000 -0.000000 0.000000 2.274126 -1.183857 -25.800997 -1.734166 -17.172195 10.067119 13.345639 -4.982969 10.858379 0.000000 -0.000000 0.000000 1.652822 -9.837032 15.919985 1.882462 -1.002465 -6.271896 1.587795 -4.890290 0.779008 -0.198528 1.904354 -17.628316 2.326892 5.959386 1.624976 -22.462215 9.549582 -0.100264 -59.746504 -10.800415 18.451247 -175.816257 -63.921712 -166.946313 4.243307 -15.090079 -36.892566 19.989762 -13.072247 -2.499006 58.414551 -18.143289 19.853612 -178.798887 74.136983 -161.955182 8.884291 15.494510 -22.445228 
1.826642 0.229048 1.014434 94.364317 0.510194 87.774955 -0.824709 5.243642 18.123549 -3.577677 -13.091002 57.518474 -11.170616 4.371937 23.461105 0.000000 -0.000000 0.000000 4.414516 -1.171629 -24.438827 -2.275326 -15.571598 13.488095 12.216778 -3.169117 11.435419 0.000000 -0.000000 0.000000 1.625576 -8.396349 17.358530 2.116447 -0.468718 -6.349189 1.621660 -4.114444 1.235889 -0.840351 0.886920 -17.614190 2.180371 5.415006 1.162945 -22.762352 9.309459 -0.133878 -60.803831 -7.841325 17.943972 -170.971842 -69.582710 -172.354675 3.112369 -14.014289 -35.608674 20.772296 -11.499913 -3.045075 59.505351 -15.555752 18.846225 -172.559508 75.184878 -156.444145 8.134123 14.731345 -21.329338 
1.946178 0.227460 0.983601 91.990284 1.144229 86.217178 1.423257 6.237769 13.251001 -4.379699 -8.796302 73.615803 -7.486813 6.394176 22.265023 0.000000 -0.000000 0.000000 6.155473 2.086191 -21.892252 -0.257398 -7.216101 22.513987 -1.914602 -3.501215 1.277496 0.000000 -0.000000 0.000000 1.775128 -7.518236 19.310112 2.126513 1.231132 -7.827900 1.223406 -3.164173 2.716350 -0.822368 0.903570 -18.889297 1.414804 5.074991 3.929361 -23.827772 10.800219 -1.466962 -60.163108 -4.353954 16.539612 -157.062390 -74.170940 173.656936 3.521401 -12.624228 -35.051717 22.610073 -9.732892 -3.875965 58.419251 -11.856135 19.102537 -167.738471 75.799769 -152.051109 6.642872 13.864957 -22.649618 
2.056203 0.225639 0.951317 89.742463 0.857941 87.099044 2.371159 3.339413 3.421313 -3.959420 -1.508725 88.630377 -3.457170 9.126968 18.550134 0.000000 -0.000000 0.000000 8.646068 5.815303 -21.880025 -1.564135 -4.403208 35.302004 -9.435791 -12.332495 -11.594493 0.000000 -0.000000 0.000000 1.001268 -5.097414 18.381888 2.804187 2.503153 -7.496552 0.591565 -2.622487 3.674560 0.243128 1.384291 -21.931659 -0.501748 3.781150 7.464752 -26.417296 11.621088 -2.102044 -56.870695 -1.508281 16.073445 -146.932847 -76.891345 161.555941 3.934234 -10.883776 -34.436254 26.560936 -6.811812 -5.087359 54.819721 -6.946711 22.093639 -156.843430 74.177046 -141.938507 3.354057 12.452178 -24.249959 
2.166005 0.225852 0.941535 89.587917 1.136237 87.329730 3.823164 0.942021 -7.505088 -4.680050 1.351325 97.666984 -4.072136 8.896124 16.163750 0.000000 -0.000000 0.000000 10.268603 6.553443 -15.187058 -1.182960 -2.984229 37.584217 -8.796091 -14.746017 -20.272837 0.000000 -0.000000 0.000000 0.774645 -3.465865 18.424557 3.902085 2.573570 -6.319246 0.287542 -1.762627 3.230180 1.195194 2.347048 -24.226044 -2.566888 2.645541 8.363820 -29.262500 13.368641 -2.338312 -53.877042 1.178234 15.221839 -136.784477 -78.251052 153.747715 3.932996 -11.253629 -32.897366 30.303297 -4.801185 -5.826494 49.445811 0.499512 22.345178 -159.197107 72.758820 -143.359706 0.166268 12.672623 -27.256270 
2.270510 0.227246 0.948404 90.123861 -0.848727 89.397866 3.072686 -2.662188 -21.053540 -3.273316 5.237326 99.679852 -1.525233 7.773638 10.919411 0.000000 -0.000000 0.000000 8.654454 2.624721 -7.442541 -0.662799 -0.172635 32.927581 -6.433757 -14.629566 -22.294052 0.000000 -0.000000 0.000000 -0.513346 0.890263 16.462944 3.770600 1.003721 -6.965942 0.123648 -1.345600 3.955364 1.882458 1.799581 -24.749371 -2.760168 1.277802 8.332144 -27.105209 14.735998 -1.170480 -54.478562 3.843737 14.118950 -131.819172 -76.469793 150.324705 4.903246 -10.849365 -32.782787 28.508100 -4.789267 -6.837190 52.084196 6.483090 21.894496 -160.494864 70.028589 -143.409427 0.672128 14.129314 -26.919408 
2.386562 0.228873 0.969097 87.850268 -2.331192 89.762539 3.185226 -3.286867 -28.050118 -0.136539 9.084334 92.440473 -0.274979 6.092763 5.559402 0.000000 -0.000000 0.000000 6.679406 -0.245179 2.789397 -2.002658 2.347034 26.948634 -1.181677 -10.021907 -16.529773 0.000000 -0.000000 0.000000 -0.854227 5.505718 15.436424 2.360441 1.722062 -6.270900 -0.558829 0.652623 2.666499 1.890358 -0.628495 -21.772002 -1.173618 -1.350610 6.169468 -25.823846 15.072595 -0.788091 -52.348107 8.211428 13.760813 -136.255089 -72.158594 152.991007 3.629843 -11.902141 -35.066101 26.442634 -3.090276 -6.756019 55.135921 5.788743 22.037946 -158.512326 62.259047 -142.104373 -4.201683 14.789803 -26.211042 
